<mxfile modified="2021-09-13T02:57:43.538Z" host="app.diagrams.net" agent="5.0 (Windows NT 10.0; Win64; x64) AppleWebKit/537.36 (KHTML, like Gecko) Chrome/91.0.4472.124 Safari/537.36" etag="AEIpr1fypNT5Xackkzev" version="14.6.13" type="github">
  <diagram id="Ht1M8jgEwFfnCIfOTk4-" name="Page-1">
    <mxGraphModel dx="1038" dy="1446" grid="1" gridSize="10" guides="1" tooltips="1" connect="1" arrows="1" fold="1" page="1" pageScale="1" pageWidth="1169" pageHeight="827" math="0" shadow="0">
      <root>
        <mxCell id="0" />
        <mxCell id="1" parent="0" />
        <mxCell id="cbANNpYKcoIMHwZbuF66-14" value="" style="rounded=0;whiteSpace=wrap;html=1;" vertex="1" parent="1">
          <mxGeometry x="480" y="-480" width="320" height="160" as="geometry" />
        </mxCell>
        <mxCell id="cbANNpYKcoIMHwZbuF66-17" value="" style="rounded=0;whiteSpace=wrap;html=1;" vertex="1" parent="1">
          <mxGeometry x="480" y="-480" width="80" height="40" as="geometry" />
        </mxCell>
        <mxCell id="cbANNpYKcoIMHwZbuF66-4" value="" style="rounded=0;whiteSpace=wrap;html=1;" vertex="1" parent="1">
          <mxGeometry x="480" y="-760" width="320" height="160" as="geometry" />
        </mxCell>
        <mxCell id="cbANNpYKcoIMHwZbuF66-3" value="" style="rounded=0;whiteSpace=wrap;html=1;" vertex="1" parent="1">
          <mxGeometry x="80" y="-760" width="320" height="160" as="geometry" />
        </mxCell>
        <mxCell id="cbANNpYKcoIMHwZbuF66-1" value="K8S+CloudCore" style="shape=cube;whiteSpace=wrap;html=1;boundedLbl=1;backgroundOutline=1;darkOpacity=0.05;darkOpacity2=0.1;" vertex="1" parent="1">
          <mxGeometry x="180" y="-720" width="120" height="80" as="geometry" />
        </mxCell>
        <mxCell id="cbANNpYKcoIMHwZbuF66-2" value="CEC-C" style="shape=cube;whiteSpace=wrap;html=1;boundedLbl=1;backgroundOutline=1;darkOpacity=0.05;darkOpacity2=0.1;" vertex="1" parent="1">
          <mxGeometry x="580" y="-720" width="120" height="80" as="geometry" />
        </mxCell>
        <mxCell id="cbANNpYKcoIMHwZbuF66-7" value="&lt;font style=&quot;font-size: 17px&quot;&gt;k8s Master&lt;/font&gt;" style="text;strokeColor=none;fillColor=none;html=1;fontSize=24;fontStyle=1;verticalAlign=middle;align=center;" vertex="1" parent="1">
          <mxGeometry x="80" y="-760" width="100" height="40" as="geometry" />
        </mxCell>
        <mxCell id="cbANNpYKcoIMHwZbuF66-8" value="&lt;font style=&quot;font-size: 17px&quot;&gt;k8s Worker&lt;/font&gt;" style="text;strokeColor=none;fillColor=none;html=1;fontSize=24;fontStyle=1;verticalAlign=middle;align=center;" vertex="1" parent="1">
          <mxGeometry x="480" y="-760" width="100" height="40" as="geometry" />
        </mxCell>
        <mxCell id="cbANNpYKcoIMHwZbuF66-10" value="" style="edgeStyle=orthogonalEdgeStyle;html=1;endArrow=block;elbow=vertical;startArrow=none;endFill=1;strokeColor=#545B64;rounded=0;" edge="1" parent="1">
          <mxGeometry width="100" relative="1" as="geometry">
            <mxPoint x="300" y="-670" as="sourcePoint" />
            <mxPoint x="580" y="-670" as="targetPoint" />
          </mxGeometry>
        </mxCell>
        <mxCell id="cbANNpYKcoIMHwZbuF66-11" value="" style="rounded=0;whiteSpace=wrap;html=1;" vertex="1" parent="1">
          <mxGeometry x="80" y="-480" width="320" height="160" as="geometry" />
        </mxCell>
        <mxCell id="cbANNpYKcoIMHwZbuF66-12" value="K8S+CloudCore" style="shape=cube;whiteSpace=wrap;html=1;boundedLbl=1;backgroundOutline=1;darkOpacity=0.05;darkOpacity2=0.1;" vertex="1" parent="1">
          <mxGeometry x="180" y="-440" width="120" height="80" as="geometry" />
        </mxCell>
        <mxCell id="cbANNpYKcoIMHwZbuF66-15" value="mapper" style="shape=cube;whiteSpace=wrap;html=1;boundedLbl=1;backgroundOutline=1;darkOpacity=0.05;darkOpacity2=0.1;" vertex="1" parent="1">
          <mxGeometry x="710" y="-370" width="80" height="40" as="geometry" />
        </mxCell>
        <mxCell id="cbANNpYKcoIMHwZbuF66-16" value="&lt;font style=&quot;font-size: 17px&quot;&gt;CEC-E&lt;/font&gt;" style="text;strokeColor=none;fillColor=none;html=1;fontSize=24;fontStyle=1;verticalAlign=middle;align=center;" vertex="1" parent="1">
          <mxGeometry x="480" y="-480" width="80" height="40" as="geometry" />
        </mxCell>
        <mxCell id="cbANNpYKcoIMHwZbuF66-18" value="" style="rounded=0;whiteSpace=wrap;html=1;" vertex="1" parent="1">
          <mxGeometry x="480" y="-640" width="80" height="40" as="geometry" />
        </mxCell>
        <mxCell id="cbANNpYKcoIMHwZbuF66-19" value="&lt;font style=&quot;font-size: 17px&quot;&gt;CEC-C&lt;/font&gt;" style="text;strokeColor=none;fillColor=none;html=1;fontSize=24;fontStyle=1;verticalAlign=middle;align=center;" vertex="1" parent="1">
          <mxGeometry x="480" y="-640" width="80" height="40" as="geometry" />
        </mxCell>
        <mxCell id="cbANNpYKcoIMHwZbuF66-20" value="" style="shape=flexArrow;endArrow=classic;startArrow=classic;html=1;exitX=0.5;exitY=0;exitDx=0;exitDy=0;" edge="1" parent="1" source="cbANNpYKcoIMHwZbuF66-16">
          <mxGeometry width="100" height="100" relative="1" as="geometry">
            <mxPoint x="520" y="-490" as="sourcePoint" />
            <mxPoint x="519.5" y="-600" as="targetPoint" />
          </mxGeometry>
        </mxCell>
        <mxCell id="cbANNpYKcoIMHwZbuF66-21" value="" style="rounded=0;whiteSpace=wrap;html=1;" vertex="1" parent="1">
          <mxGeometry x="320" y="-480" width="80" height="40" as="geometry" />
        </mxCell>
        <mxCell id="cbANNpYKcoIMHwZbuF66-22" value="&lt;font style=&quot;font-size: 17px&quot;&gt;CEC-E&lt;/font&gt;" style="text;strokeColor=none;fillColor=none;html=1;fontSize=24;fontStyle=1;verticalAlign=middle;align=center;" vertex="1" parent="1">
          <mxGeometry x="320" y="-480" width="80" height="40" as="geometry" />
        </mxCell>
        <mxCell id="cbANNpYKcoIMHwZbuF66-23" value="" style="shape=flexArrow;endArrow=classic;startArrow=classic;html=1;entryX=0;entryY=1;entryDx=0;entryDy=0;exitX=1;exitY=0;exitDx=0;exitDy=0;" edge="1" parent="1" source="cbANNpYKcoIMHwZbuF66-22" target="cbANNpYKcoIMHwZbuF66-19">
          <mxGeometry width="100" height="100" relative="1" as="geometry">
            <mxPoint x="130" y="-480" as="sourcePoint" />
            <mxPoint x="470" y="-610" as="targetPoint" />
          </mxGeometry>
        </mxCell>
        <mxCell id="cbANNpYKcoIMHwZbuF66-24" value="&lt;span style=&quot;font-size: 17px&quot;&gt;0.153/24&lt;/span&gt;" style="text;strokeColor=none;fillColor=none;html=1;fontSize=24;fontStyle=1;verticalAlign=middle;align=center;" vertex="1" parent="1">
          <mxGeometry x="80" y="-510" width="70" height="30" as="geometry" />
        </mxCell>
        <mxCell id="cbANNpYKcoIMHwZbuF66-25" value="&lt;span style=&quot;font-size: 17px&quot;&gt;0.154/24&lt;/span&gt;" style="text;strokeColor=none;fillColor=none;html=1;fontSize=24;fontStyle=1;verticalAlign=middle;align=center;" vertex="1" parent="1">
          <mxGeometry x="730" y="-510" width="70" height="30" as="geometry" />
        </mxCell>
        <mxCell id="cbANNpYKcoIMHwZbuF66-26" value="&lt;span style=&quot;font-size: 17px&quot;&gt;150.20/16&lt;/span&gt;" style="text;strokeColor=none;fillColor=none;html=1;fontSize=24;fontStyle=1;verticalAlign=middle;align=center;" vertex="1" parent="1">
          <mxGeometry x="80" y="-790" width="70" height="30" as="geometry" />
        </mxCell>
        <mxCell id="cbANNpYKcoIMHwZbuF66-27" value="&lt;span style=&quot;font-size: 17px&quot;&gt;151.20/16&lt;/span&gt;" style="text;strokeColor=none;fillColor=none;html=1;fontSize=24;fontStyle=1;verticalAlign=middle;align=center;" vertex="1" parent="1">
          <mxGeometry x="730" y="-790" width="70" height="30" as="geometry" />
        </mxCell>
      </root>
    </mxGraphModel>
  </diagram>
</mxfile>
